<mxfile host="app.diagrams.net" modified="2023-10-09T12:57:31.815Z" agent="Mozilla/5.0 (Windows NT 10.0; Win64; x64) AppleWebKit/537.36 (KHTML, like Gecko) Chrome/116.0.0.0 Whale/3.22.205.18 Safari/537.36" version="22.0.4" etag="Fh1BwVPKTKOJbJCNQwtX" type="github">
  <diagram name="페이지-1" id="l6xatubTMCG_8-zjkK7w">
    <mxGraphModel>
      <root>
        <mxCell id="0" />
        <mxCell id="1" parent="0" />
      </root>
    </mxGraphModel>
  </diagram>
</mxfile>
